<?xml version="1.0" standalone="no"?>
<!DOCTYPE svg PUBLIC "-//W3C//DTD SVG 20010904//EN"
 "http://www.w3.org/TR/2001/REC-SVG-20010904/DTD/svg10.dtd">
<svg version="1.0" xmlns="http://www.w3.org/2000/svg"
 width="512.000000pt" height="512.000000pt" viewBox="0 0 512.000000 512.000000"
 preserveAspectRatio="xMidYMid meet">

<g transform="translate(0.000000,512.000000) scale(0.100000,-0.100000)"
fill="#b3c5d5" stroke="none">
<path d="M1294 4224 c-682 -493 -1251 -909 -1267 -925 -34 -37 -34 -69 -1
-108 l26 -31 2507 0 c2505 0 2507 0 2529 20 29 28 37 63 20 97 -20 41 -2511
1843 -2548 1843 -20 0 -343 -228 -1266 -896z m2370 -94 l1098 -795 -1101 -3
c-606 -1 -1596 -1 -2202 0 l-1101 3 1099 797 c604 438 1101 796 1104 795 3 -1
500 -360 1103 -797z"/>
<path d="M2501 4666 c-16 -17 -24 -41 -28 -83 l-5 -59 -60 -17 c-114 -34 -196
-147 -186 -258 6 -56 43 -133 82 -166 67 -56 103 -67 236 -71 102 -3 130 -8
151 -23 51 -36 45 -105 -10 -134 -24 -12 -67 -15 -211 -15 -183 0 -211 -5
-237 -39 -16 -21 -16 -71 0 -92 23 -30 56 -39 146 -39 l91 0 0 -42 c0 -88 55
-144 118 -122 34 12 62 66 62 121 0 44 0 43 63 57 96 22 187 138 187 240 0 84
-57 176 -138 224 -43 25 -57 27 -167 30 -66 2 -133 8 -148 14 -56 22 -69 95
-25 135 18 16 45 19 225 23 l205 5 24 28 c31 36 31 77 -1 111 -23 25 -29 26
-123 26 l-99 0 -6 61 c-7 76 -33 109 -87 109 -26 0 -43 -7 -59 -24z"/>
<path d="M660 2983 c-61 -23 -79 -95 -35 -138 22 -23 31 -25 125 -25 l100 0 0
-985 0 -985 -100 0 c-94 0 -103 -2 -125 -25 -34 -33 -34 -83 1 -116 l26 -24
545 0 545 0 24 28 c31 37 31 81 -1 112 -22 23 -31 25 -125 25 l-100 0 0 985 0
985 100 0 c94 0 103 2 125 25 32 31 32 75 1 112 l-24 28 -534 2 c-293 1 -540
-1 -548 -4z m705 -1148 l0 -980 -170 0 -170 0 -3 970 c-1 534 0 976 3 983 3
10 44 12 172 10 l168 -3 0 -980z"/>
<path d="M2014 2976 c-20 -9 -35 -25 -42 -45 -13 -36 -8 -56 21 -88 19 -21 29
-23 124 -23 l103 0 0 -985 0 -985 -103 0 c-95 0 -105 -2 -124 -22 -29 -33 -34
-53 -21 -89 20 -59 24 -59 588 -59 564 0 568 0 588 59 13 36 8 56 -21 89 -19
20 -29 22 -124 22 l-103 0 0 985 0 985 103 0 c95 0 105 2 124 23 29 32 34 52
21 88 -20 59 -24 59 -590 59 -409 -1 -519 -4 -544 -14z m716 -1141 l0 -985
-170 0 -170 0 0 985 0 985 170 0 170 0 0 -985z"/>
<path d="M3393 2983 c-31 -6 -63 -50 -63 -85 0 -17 10 -39 25 -53 22 -23 31
-25 125 -25 l100 0 0 -985 0 -985 -100 0 c-94 0 -103 -2 -125 -25 -32 -31 -32
-75 -1 -112 l24 -28 545 0 545 0 26 24 c35 33 35 83 1 116 -22 23 -31 25 -125
25 l-100 0 0 985 0 985 100 0 c94 0 103 2 125 25 34 33 34 83 -1 116 l-26 24
-526 1 c-290 1 -537 0 -549 -3z m702 -1148 l0 -980 -170 0 -170 0 -3 970 c-1
534 0 976 3 983 3 10 44 12 172 10 l168 -3 0 -980z"/>
<path d="M285 485 c-42 -41 -31 -105 22 -133 31 -17 4475 -17 4506 0 53 28 64
92 22 133 l-24 25 -2251 0 -2251 0 -24 -25z"/>
<path d="M29 141 c-17 -18 -29 -40 -29 -56 0 -16 12 -38 29 -56 l29 -29 2502
0 2502 0 29 29 c38 38 38 74 0 112 l-29 29 -2502 0 -2502 0 -29 -29z"/>
</g>
</svg>
